<svg id="visual" viewBox="0 0 1920 1080" width="1920" height="1080" xmlns="http://www.w3.org/2000/svg" xmlns:xlink="http://www.w3.org/1999/xlink" version="1.1"><rect x="0" y="0" width="1920" height="1080" fill="#ffffff"></rect><path d="M0 323L45.7 342.5C91.3 362 182.7 401 274.2 396.7C365.7 392.3 457.3 344.7 548.8 327.3C640.3 310 731.7 323 823 332.5C914.3 342 1005.7 348 1097 351C1188.3 354 1279.7 354 1371.2 341.2C1462.7 328.3 1554.3 302.7 1645.8 300.7C1737.3 298.7 1828.7 320.3 1874.3 331.2L1920 342L1920 0L1874.3 0C1828.7 0 1737.3 0 1645.8 0C1554.3 0 1462.7 0 1371.2 0C1279.7 0 1188.3 0 1097 0C1005.7 0 914.3 0 823 0C731.7 0 640.3 0 548.8 0C457.3 0 365.7 0 274.2 0C182.7 0 91.3 0 45.7 0L0 0Z" fill="#fa7268"></path><path d="M0 232L45.7 254C91.3 276 182.7 320 274.2 321.3C365.7 322.7 457.3 281.3 548.8 260.3C640.3 239.3 731.7 238.7 823 245.2C914.3 251.7 1005.7 265.3 1097 282.7C1188.3 300 1279.7 321 1371.2 323.7C1462.7 326.3 1554.3 310.7 1645.8 296.5C1737.3 282.3 1828.7 269.7 1874.3 263.3L1920 257L1920 0L1874.3 0C1828.7 0 1737.3 0 1645.8 0C1554.3 0 1462.7 0 1371.2 0C1279.7 0 1188.3 0 1097 0C1005.7 0 914.3 0 823 0C731.7 0 640.3 0 548.8 0C457.3 0 365.7 0 274.2 0C182.7 0 91.3 0 45.7 0L0 0Z" fill="#ef5f67"></path><path d="M0 212L45.7 209.7C91.3 207.3 182.7 202.7 274.2 201.2C365.7 199.7 457.3 201.3 548.8 212.5C640.3 223.7 731.7 244.3 823 257.3C914.3 270.3 1005.7 275.7 1097 275.5C1188.3 275.3 1279.7 269.7 1371.2 253.3C1462.7 237 1554.3 210 1645.8 201.5C1737.3 193 1828.7 203 1874.3 208L1920 213L1920 0L1874.3 0C1828.7 0 1737.3 0 1645.8 0C1554.3 0 1462.7 0 1371.2 0C1279.7 0 1188.3 0 1097 0C1005.7 0 914.3 0 823 0C731.7 0 640.3 0 548.8 0C457.3 0 365.7 0 274.2 0C182.7 0 91.3 0 45.7 0L0 0Z" fill="#e34c67"></path><path d="M0 107L45.7 119.7C91.3 132.3 182.7 157.7 274.2 166.7C365.7 175.7 457.3 168.3 548.8 166.3C640.3 164.3 731.7 167.7 823 170.5C914.3 173.3 1005.7 175.7 1097 171.3C1188.3 167 1279.7 156 1371.2 155.8C1462.7 155.7 1554.3 166.3 1645.8 167C1737.3 167.7 1828.7 158.3 1874.3 153.7L1920 149L1920 0L1874.3 0C1828.7 0 1737.3 0 1645.8 0C1554.3 0 1462.7 0 1371.2 0C1279.7 0 1188.3 0 1097 0C1005.7 0 914.3 0 823 0C731.7 0 640.3 0 548.8 0C457.3 0 365.7 0 274.2 0C182.7 0 91.3 0 45.7 0L0 0Z" fill="#d53867"></path><path d="M0 132L45.7 121C91.3 110 182.7 88 274.2 77.7C365.7 67.3 457.3 68.7 548.8 76.3C640.3 84 731.7 98 823 104.2C914.3 110.3 1005.7 108.7 1097 110C1188.3 111.3 1279.7 115.7 1371.2 111.2C1462.7 106.7 1554.3 93.3 1645.8 94.5C1737.3 95.7 1828.7 111.3 1874.3 119.2L1920 127L1920 0L1874.3 0C1828.7 0 1737.3 0 1645.8 0C1554.3 0 1462.7 0 1371.2 0C1279.7 0 1188.3 0 1097 0C1005.7 0 914.3 0 823 0C731.7 0 640.3 0 548.8 0C457.3 0 365.7 0 274.2 0C182.7 0 91.3 0 45.7 0L0 0Z" fill="#c62368"></path></svg>